<svg xmlns="http://www.w3.org/2000/svg" viewBox="0 0 1068.01 656.92">
<defs><style>.cls-1{fill:#fff;}</style></defs><title>Asset 2</title><g id="Layer_2" data-name="Layer 2"><g id="Layer_1-2" data-name="Layer 1"><path class="cls-1" d="M215,294.45A162.2,162.2,0,0,1,304.2,1V1.2c1.46-.16,2.94-.27,4.43-.31l1.5,0H488A54.06,54.06,0,1,1,488,109H310.13a52.9,52.9,0,0,1-5.93-.33v.66a54.06,54.06,0,0,0,0,107.47v.33a54.06,54.06,0,0,1,2.06,108.09l-2.06-.07c-2.7-.09-5.39-.26-8.05-.48A161.37,161.37,0,0,1,215,294.45"/><circle class="cls-1" cx="674.16" cy="54.06" r="54.06"/><path class="cls-1" d="M107.56,61.83A54.06,54.06,0,1,0,0,54.06a55.3,55.3,0,0,0,.56,7.77V263.3A55.26,55.26,0,0,0,0,271.06a54.07,54.07,0,1,0,107.56-7.76Z"/><path class="cls-1" d="M32.62,611.36H.72V452h31.9v79.68L92,452h36.23L77.85,519.23l50.34,92.13H92L57,546.9,32.62,579.46Z"/><path class="cls-1" d="M247.21,550.79a64,64,0,0,1-4.78,24.84,62.17,62.17,0,0,1-13,19.89,60.84,60.84,0,0,1-19.28,13.23,60.41,60.41,0,0,1-47.34,0,61,61,0,0,1-32.4-33.12,64,64,0,0,1-4.78-24.84,65,65,0,0,1,4.78-25.11,61.5,61.5,0,0,1,13.06-19.95,60.78,60.78,0,0,1,19.34-13.17,59,59,0,0,1,23.61-4.78,62.37,62.37,0,0,1,23.73,4.5,57.3,57.3,0,0,1,19.28,12.78,60.67,60.67,0,0,1,13,19.89A67.27,67.27,0,0,1,247.21,550.79Zm-30.56,0a35.41,35.41,0,0,0-2.39-13.28,31.67,31.67,0,0,0-6.5-10.22,28.15,28.15,0,0,0-9.62-6.56,31.26,31.26,0,0,0-23.44,0,27.54,27.54,0,0,0-9.56,6.56,31.09,31.09,0,0,0-6.39,10.22,36,36,0,0,0-2.33,13.28,34.25,34.25,0,0,0,2.33,12.78,31.88,31.88,0,0,0,6.39,10.23,29.85,29.85,0,0,0,9.56,6.83,27.91,27.91,0,0,0,11.72,2.5,29.76,29.76,0,0,0,11.72-2.33,29.17,29.17,0,0,0,9.62-6.56,30.83,30.83,0,0,0,6.5-10.22A35.51,35.51,0,0,0,216.65,550.79Z"/><path class="cls-1" d="M294.55,611.36H264V445h30.56Z"/><path class="cls-1" d="M436.8,550.79A66.35,66.35,0,0,1,432,576.35a60.76,60.76,0,0,1-13,19.84A57.92,57.92,0,0,1,399.73,609,61.6,61.6,0,0,1,376,613.58a60.08,60.08,0,0,1-42.95-17.67A61,61,0,0,1,320,576.07a65.14,65.14,0,0,1-4.78-25.28V445h30.45v55.56a27.52,27.52,0,0,1,5.95-5.55,35.2,35.2,0,0,1,7.55-4,49.45,49.45,0,0,1,8.39-2.38,44.4,44.4,0,0,1,8.45-.84,59.73,59.73,0,0,1,23.72,4.73A58.8,58.8,0,0,1,419,505.67a63,63,0,0,1,13,19.95A65.09,65.09,0,0,1,436.8,550.79Zm-30.56,0A34.13,34.13,0,0,0,403.85,538a32.28,32.28,0,0,0-6.5-10.28,29.89,29.89,0,0,0-9.62-6.78A28.53,28.53,0,0,0,376,518.45a26.05,26.05,0,0,0-11.73,2.73,32.3,32.3,0,0,0-9.61,7.22,33.75,33.75,0,0,0-6.44,10.33,32.12,32.12,0,0,0-2.34,12.06,34.25,34.25,0,0,0,2.34,12.78,31.49,31.49,0,0,0,6.44,10.23,30.62,30.62,0,0,0,9.61,6.83,28.75,28.75,0,0,0,23.45,0,30.66,30.66,0,0,0,9.62-6.83,32.49,32.49,0,0,0,6.5-10.23A33.68,33.68,0,0,0,406.24,550.79Z"/><path class="cls-1" d="M482.25,656.7V626.14l16.89.22a25.77,25.77,0,0,0,8.56-1.44,29.48,29.48,0,0,0,7.61-4,30,30,0,0,0,6.17-6,33.06,33.06,0,0,0,4.33-7.61q-5,2.1-10.17,4.22a27.21,27.21,0,0,1-10.39,2.11,55,55,0,0,1-20.67-3.89,50.22,50.22,0,0,1-28.39-28.5A60.88,60.88,0,0,1,452,558.13V492.34h30.23v65.79a30.46,30.46,0,0,0,1.83,11,22.79,22.79,0,0,0,4.95,7.89,19.68,19.68,0,0,0,7.28,4.73,25.22,25.22,0,0,0,8.94,1.55,19,19,0,0,0,8.84-2.16,24.8,24.8,0,0,0,7.28-5.73,27.6,27.6,0,0,0,4.89-8.05,25.16,25.16,0,0,0,1.77-9.28V492.34h30.56v104a59.64,59.64,0,0,1-4.89,23.55,61.12,61.12,0,0,1-13.05,19.23,62.29,62.29,0,0,1-19.28,13,58.45,58.45,0,0,1-23.56,4.78Z"/><path class="cls-1" d="M639.27,499.78a45.86,45.86,0,0,1,3.78-18.55,48.56,48.56,0,0,1,25.45-25.45A45.91,45.91,0,0,1,687.06,452h73.12v31.89H687.06a15.75,15.75,0,0,0-15.89,15.89,16.09,16.09,0,0,0,1.22,6.28,15.58,15.58,0,0,0,8.45,8.5,15.69,15.69,0,0,0,6.22,1.23H719a47,47,0,0,1,18.62,3.72A47.57,47.57,0,0,1,763,545a48.28,48.28,0,0,1,0,37.17,48,48,0,0,1-10.23,15.17,48.73,48.73,0,0,1-15.22,10.28A46.33,46.33,0,0,1,719,611.36H648.16v-31.9H719a15.93,15.93,0,0,0,11.28-27.17A15.73,15.73,0,0,0,719,547.68H687.06a45.91,45.91,0,0,1-18.56-3.78,48.42,48.42,0,0,1-25.45-25.5A46.33,46.33,0,0,1,639.27,499.78Z"/><path class="cls-1" d="M820.19,460a19.46,19.46,0,0,1-1.61,7.89,20.23,20.23,0,0,1-4.39,6.39,21.07,21.07,0,0,1-6.5,4.33,20.29,20.29,0,0,1-15.89,0,20.49,20.49,0,0,1-6.45-4.33,20.74,20.74,0,0,1-4.33-6.39,20,20,0,0,1,0-15.73,20.16,20.16,0,0,1,10.78-10.77,20.29,20.29,0,0,1,15.89,0,21.07,21.07,0,0,1,6.5,4.33,20.11,20.11,0,0,1,4.39,6.44A19.65,19.65,0,0,1,820.19,460ZM815,611.36H784.41v-119H815Z"/><path class="cls-1" d="M903.43,611.36H834.08V581.13h69.35a7.58,7.58,0,0,0,7.55-7.56q0-3.21-2.22-4.22a12.87,12.87,0,0,0-5.33-1H871.87a36.6,36.6,0,0,1-14.78-3,37.84,37.84,0,0,1-12-8.17A38.25,38.25,0,0,1,837,545.12a38.5,38.5,0,0,1,0-29.56,37.44,37.44,0,0,1,20.06-20,37.08,37.08,0,0,1,14.78-2.95h61.45v30.23H871.87a7.58,7.58,0,0,0-7.56,7.55,7.62,7.62,0,0,0,2.22,5.51,7.21,7.21,0,0,0,5.34,2.27h31.56a41.34,41.34,0,0,1,14.67,2.61,37.32,37.32,0,0,1,12,7.28,34.46,34.46,0,0,1,8.11,11.23,34,34,0,0,1,3,14.33,36.23,36.23,0,0,1-3,14.73,39.28,39.28,0,0,1-8.11,12,37.25,37.25,0,0,1-12,8.11A36.87,36.87,0,0,1,903.43,611.36Z"/><path class="cls-1" d="M987.89,611.36H957.33V445h30.56V549.9l45.23-57.34H1068l-39.45,49.56L1068,611.36h-34.89L1009,568.13l-21.11,28Z"/></g></g></svg>